<?xml version="1.0" encoding="utf-8"?>
<?xml-stylesheet type="text/xsl" href="rss1.xsl"?>
<rss version="2.0" xmlns:atom="http://www.w3.org/2005/Atom" xmlns:content="http://purl.org/rss/1.0/modules/content/" xmlns:dc="http://purl.org/dc/elements/1.1/" xmlns:media="http://search.yahoo.com/mrss/">
<channel>
 <title>Getty</title>
 <link>http://www.gettyimg.com/</link>
 <atom:link href="http://www.gettyimg.com/" rel="self" type="application/rss+xml" />

 
                <item>
                <title><![CDATA[【SD Live Performances】SDTV - Mariah Carey - It's Like That (Live At VH1 Save The Music April 17th, 2005)]]></title>
                <link><![CDATA[https://sharemania.us/threads/mariah-carey-its-like-that-live-at-vh1-save-the-music-april-17th-2005.226579/]]></link>
                <description><![CDATA[<article>
<blockquote class="messageText SelectQuoteContainer ugc baseHtml">
Requested by <a href="https://sharemania.us/members/705/" class="username" data-user="705, @SCANDAL">@SCANDAL</a><br>
<br>
<img src="https://lh3.googleusercontent.com/drive-viewer/AITFw-y2ZVqtNU2qwd15OQKfcnhqHxJ0WknDgvPTnNp7jrLpAFIBZTgs8IEi2lQGYn139c5ikRY6GyXCksoBHWPBEeOwMLU-vw=s1600" class="bbCodeImage LbImage" alt="[​IMG]" data-url="https://lh3.googleusercontent.com/drive-viewer/AITFw-y2ZVqtNU2qwd15OQKfcnhqHxJ0WknDgvPTnNp7jrLpAFIBZTgs8IEi2lQGYn139c5ikRY6GyXCksoBHWPBEeOwMLU-vw=s1600" style=""> <br>
<div class="ToggleTriggerAnchor bbCodeSpoilerContainer">
<button type="button" class="button bbCodeSpoilerButton ToggleTrigger Tooltip JsOnly" data-target="> .SpoilerTarget"><span>Spoiler: <span class="SpoilerTitle">Media Info</span></span></button>
<div class="SpoilerTarget bbCodeSpoilerText">
<div class="bbCodeBlock bbCodeCode">
<div class="type">Code:</div>
<pre>General
Complete name                            : Mariah Carey - It's Like That (VH1 Save The Music 2005).mpg
Format                                   : MPEG-PS
File size                                : 327 MiB
Duration                                 : 4 min 50 s
Overall bit rate mode                    : Constant
Overall bit rate                         : 9 444 kb/s

Video
ID                                       : 224 (0xE0)
Format                                   : MPEG Video
Format version                           : Version 2
Format profile                           : Main@Main
Format settings, BVOP                    : Yes
Format settings, Matrix                  : Default
Format settings, GOP                     : M=3, N=15
Duration                                 : 4 min 50 s
Bit rate mode                            : Constant
Bit rate                                 : 9 000 kb/s
Width                                    : 720 pixels
Height                                   : 480 pixels
Display aspect ratio                     : 4:3
Frame rate                               : 29.970 (30000/1001) FPS
Standard                                 : NTSC
Color space                              : YUV
Chroma subsampling                       : 4:2:0
Bit depth                                : 8 bits
Scan type                                : Progressive
Compression mode                         : Lossy
Bits/(Pixel*Frame)                       : 0.869
Time code of first frame                 : 00:00:00:00
Time code source                         : Group of pictures header
GOP, Open/Closed                         : Open
GOP, Open/Closed of first frame          : Closed
Stream size                              : 309 MiB (95%)
Color primaries                          : BT.470 System M
Transfer characteristics                 : BT.470 System M
Matrix coefficients                      : BT.601

Audio
ID                                       : 192 (0xC0)
Format                                   : MPEG Audio
Format version                           : Version 1
Format profile                           : Layer 2
Duration                                 : 4 min 50 s
Bit rate mode                            : Constant
Bit rate                                 : 320 kb/s
Channel(s)                               : 2 channels
Sampling rate                            : 48.0 kHz
Compression mode                         : Lossy
Stream size                              : 11.1 MiB (3%)

</pre>
</div></div>
</div>
<div class="bbCodeBlock bbCodeVfcHH HiddenContent">
<div class="attribution type">Hidden Content:</div>
<blockquote>You must either reply or click 'Like' to see the hidden information contained here.</blockquote>
</div>
<div class="messageTextEndMarker">&nbsp;</div>
</blockquote>
</article>]]></description>
                <author><![CDATA[jempolgede]]></author>
                </item>

                
                <item>
                <title><![CDATA[【Requests】[REQ AUD] - Simply Three ,Kabát]]></title>
                <link><![CDATA[https://sharemania.us/threads/simply-three-kab%C3%A1t.226578/]]></link>
                <description><![CDATA[<article>
<blockquote class="messageText SelectQuoteContainer ugc baseHtml">
hi i would appreciate it if someone post this . thanks<br>
<br>
1. <a href="https://www.qobuz.com/us-en/album/el-presidento-kabat/aolva7a73q10b" target="_blank" class="externalLink" rel="nofollow">https://www.qobuz.com/us-en/album/el-presidento-kabat/aolva7a73q10b</a><br>
2. <a href="https://www.qobuz.com/us-en/album/zive-kabat/0094635907650" target="_blank" class="externalLink" rel="nofollow">https://www.qobuz.com/us-en/album/zive-kabat/0094635907650</a><br>
3. <a href="https://www.qobuz.com/ie-en/album/ma-ji-motorovou-kabat/0094636397658" target="_blank" class="externalLink" rel="nofollow">https://www.qobuz.com/ie-en/album/ma-ji-motorovou-kabat/0094636397658</a><br>
4 . <a href="https://www.qobuz.com/gb-en/album/toms-diner-annenmaykantereit/u59hp8od8qqkc" target="_blank" class="externalLink" rel="nofollow">https://www.qobuz.com/gb-en/album/toms-diner-annenmaykantereit/u59hp8od8qqkc</a><br>
5. <a href="https://www.qobuz.com/us-en/album/volume-5-simply-three/y8vc0x1xc88tc" target="_blank" class="externalLink" rel="nofollow">https://www.qobuz.com/us-en/album/volume-5-simply-three/y8vc0x1xc88tc</a><br>
6. <a href="https://www.qobuz.com/us-en/album/undefined-simply-three/ilxghbxkf0ydb" target="_blank" class="externalLink" rel="nofollow">https://www.qobuz.com/us-en/album/undefined-simply-three/ilxghbxkf0ydb</a><br>
7. <a href="https://www.qobuz.com/us-en/album/vol-3-simply-three/m8tfwovhno5ea" target="_blank" class="externalLink" rel="nofollow">https://www.qobuz.com/us-en/album/vol-3-simply-three/m8tfwovhno5ea</a><br>
8. <a href="https://www.qobuz.com/us-en/album/vol-1-simply-three/yvpelmoju21ib" target="_blank" class="externalLink" rel="nofollow">https://www.qobuz.com/us-en/album/vol-1-simply-three/yvpelmoju21ib</a><br>
9. <a href="https://www.qobuz.com/us-en/album/spectrum-simply-three/ojkwt8y1e39eb" target="_blank" class="externalLink" rel="nofollow">https://www.qobuz.com/us-en/album/spectrum-simply-three/ojkwt8y1e39eb</a><br>
10. <a href="https://www.qobuz.com/us-en/album/lux-simply-three/wwl5q2bm15ydb" target="_blank" class="externalLink" rel="nofollow">https://www.qobuz.com/us-en/album/lux-simply-three/wwl5q2bm15ydb</a><br>
11. <a href="https://www.qobuz.com/us-en/album/better-days-simply-three/zlmmeye3y0fga" target="_blank" class="externalLink" rel="nofollow">https://www.qobuz.com/us-en/album/better-days-simply-three/zlmmeye3y0fga</a>
<div class="messageTextEndMarker">&nbsp;</div>
</blockquote>
</article>]]></description>
                <author><![CDATA[Samuelk]]></author>
                </item>

                </channel></rss>